<?xml version="1.0" encoding="utf-8"?>
<!-- Generator: Adobe Illustrator 14.0.0, SVG Export Plug-In . SVG Version: 6.00 Build 43363)  -->
<!DOCTYPE svg PUBLIC "-//W3C//DTD SVG 1.1//EN" "http://www.w3.org/Graphics/SVG/1.1/DTD/svg11.dtd">
<svg version="1.1" id="レイヤー_1" xmlns="http://www.w3.org/2000/svg" xmlns:xlink="http://www.w3.org/1999/xlink" x="0px"
	 y="0px" width="85.011px" height="72.532px" viewBox="0 0 85.011 72.532" style="enable-background:new 0 0 85.011 72.532;"
	 xml:space="preserve">
<style type="text/css">
<![CDATA[
	.st0{fill:#878787;}
]]>
</style>
<path class="st0" d="M50.923,66.81c-1.035,1.279-3.792,4.376-7.039,5.542l-0.213,0.063l-0.065,0.011
	c-2.408,0.492-18.436-0.146-31.43-14.809C-0.973,42.784-0.54,25.237,0.419,23.314c1.55-3.088,4.954-5.452,6.346-6.327
	c0.457-0.283,0.942-0.48,1.448-0.584c2.071-0.423,3.937,0.78,5.168,1.575c0.216,0.14,0.411,0.268,0.583,0.365
	c1.937,1.118,3.777,12.139,3.722,13.026c-0.101,1.651-1.709,3.136-5.565,6.554c1.194,3.771,4.515,8.816,7.176,11.813
	c2.459,2.778,7.677,7.478,11.49,9.242c3.384-2.998,4.991-4.384,6.456-4.685c0.245-0.05,0.486-0.064,0.716-0.054
	c0.886,0.054,11.611,3.203,12.482,5.263c0.078,0.184,0.181,0.394,0.294,0.627C51.469,61.636,52.836,64.445,50.923,66.81z
	 M85.011,2.894v36.168c0,1.597-1.297,2.89-2.895,2.89H33.073c-1.598,0-2.894-1.293-2.894-2.89V2.894C30.179,1.299,31.475,0,33.073,0
	H80.99h1.127C83.714,0,85.011,1.299,85.011,2.894z M35.273,36.968h44.753v-1.651c-5.057-4.031-10.109-8.063-15.17-12.092
	l-5.627,4.513c-1.053,0.849-2.551,0.849-3.611,0.005l-5.29-4.22c-5.053,4.059-10.108,8.113-15.164,12.17v1.276H35.273z
	 M80.026,4.986h-0.12H35.164v1.664c6.815,5.438,13.634,10.868,20.447,16.304c1.057,0.843,2.559,0.84,3.611-0.007
	c6.938-5.56,13.869-11.125,20.804-16.688V4.986z M46.94,20.831l-1.795-1.44c-3.329-2.654-6.654-5.306-9.981-7.96v19.436l1.8-1.419
	l2.87-2.292c2.497-2.004,4.995-4.006,7.489-6.011L46.94,20.831z M80.015,27.668l0.011-4.612V11.049
	c-4.058,3.256-8.114,6.511-12.168,9.77l0.357,0.294l1.779,1.419c3.334,2.66,6.668,5.321,10.003,7.98L80.015,27.668z"/>
</svg>
